<?xml version="1.0" standalone="no"?><!DOCTYPE svg PUBLIC "-//W3C//DTD SVG 1.1//EN" "http://www.w3.org/Graphics/SVG/1.1/DTD/svg11.dtd"><svg t="1614695847815" class="icon" viewBox="0 0 1024 1024" version="1.1" xmlns="http://www.w3.org/2000/svg" p-id="3022" xmlns:xlink="http://www.w3.org/1999/xlink" width="200" height="200"><defs><style type="text/css"></style></defs><path d="M512 64C264.577 64 64 264.577 64 512c0 247.424 200.576 448 448 448s448-200.576 448-448c0-247.423-200.576-448-448-448z m0 832c-212.077 0-384-171.923-384-384s171.922-384 384-384 384 171.922 384 384-171.923 384-384 384z" p-id="3023" fill="#9e9e9e"></path><path d="M512 736m-64 0a64 64 0 1 0 128 0 64 64 0 1 0-128 0Z" p-id="3024" fill="#9e9e9e"></path><path d="M512 224c-48.601 0-88 39.399-88 88 0 2.697 0 8 4.012 26.339L480 576c0 17.673 14.327 32 32 32 17.673 0 32-14.327 32-32l51.988-237.66C600 320 600 314.697 600 312c0-48.601-39.398-88-88-88z" p-id="3025" fill="#9e9e9e"></path></svg>