<?xml version="1.0" standalone="no"?><!DOCTYPE svg PUBLIC "-//W3C//DTD SVG 1.1//EN" "http://www.w3.org/Graphics/SVG/1.1/DTD/svg11.dtd"><svg t="1614617648371" class="icon" viewBox="0 0 1024 1024" version="1.1" xmlns="http://www.w3.org/2000/svg" p-id="3633" xmlns:xlink="http://www.w3.org/1999/xlink" width="200" height="200"><defs><style type="text/css"></style></defs><path d="M512 524.8a249.856 249.856 0 1 1 249.344-249.344A249.856 249.856 0 0 1 512 524.8z m0-448a198.656 198.656 0 1 0 198.144 198.656A198.656 198.656 0 0 0 512 76.8zM716.8 998.4H307.2a186.88 186.88 0 0 1-175.616-89.6A209.408 209.408 0 0 1 153.6 695.808a322.048 322.048 0 0 1 256-142.336h204.8a322.048 322.048 0 0 1 256 142.336 209.408 209.408 0 0 1 20.48 212.992A186.88 186.88 0 0 1 716.8 998.4z m-307.2-393.728a268.288 268.288 0 0 0-214.016 118.784 159.744 159.744 0 0 0-18.432 160.768A138.752 138.752 0 0 0 307.2 947.2h409.6a138.752 138.752 0 0 0 130.56-62.976 159.744 159.744 0 0 0-18.432-160.768A268.288 268.288 0 0 0 614.4 604.672z" p-id="3634" fill="#ffffff"></path></svg>