<?xml version="1.0" standalone="no"?><!DOCTYPE svg PUBLIC "-//W3C//DTD SVG 1.1//EN" "http://www.w3.org/Graphics/SVG/1.1/DTD/svg11.dtd"><svg t="1628403627721" class="icon" viewBox="0 0 1024 1024" version="1.1" xmlns="http://www.w3.org/2000/svg" p-id="2292" xmlns:xlink="http://www.w3.org/1999/xlink" width="16" height="16"><defs><style type="text/css"></style></defs><path d="M499.2 64c-249.6 0-448 198.4-448 448s198.4 448 448 448 448-198.4 448-448-198.4-448-448-448z m179.2 582.4c12.8 12.8 12.8 32 0 44.8-12.8 12.8-32 12.8-44.8 0L499.2 556.8l-134.4 134.4c-12.8 12.8-32 12.8-44.8 0s-12.8-32 0-44.8L454.4 512 320 377.6c-12.8-12.8-12.8-32 0-44.8s32-12.8 44.8 0l134.4 134.4 134.4-134.4c12.8-12.8 32-12.8 44.8 0 12.8 12.8 12.8 32 0 44.8L544 512l134.4 134.4z" fill="#6373ff" p-id="2293"></path></svg>