<?xml version="1.0" standalone="no"?><!DOCTYPE svg PUBLIC "-//W3C//DTD SVG 1.1//EN" "http://www.w3.org/Graphics/SVG/1.1/DTD/svg11.dtd"><svg t="1626436360053" class="icon" viewBox="0 0 1024 1024" version="1.1" xmlns="http://www.w3.org/2000/svg" p-id="12585" xmlns:xlink="http://www.w3.org/1999/xlink" width="48" height="48"><defs><style type="text/css"></style></defs><path d="M483.8 542.5L75.4 346.9c-16.1-7.7-16.1-30.6 0-38.4l408.3-195.6c17.4-8.4 37.7-8.4 55.1 0l408.3 195.6c16.1 7.7 16.1 30.6 0 38.4L538.9 542.5c-17.4 8.4-37.7 8.4-55.1 0z" fill="#3c27ff" p-id="12586"></path><path d="M536.7 595.3c-16 7.7-34.6 7.7-50.6 0L231 473.1v334.6c0 66 54 120 120 120h321.8c66 0 120-54 120-120V472.6L536.7 595.3zM142.8 664.2c-11 0-20-9-20-20V327.7c0-11 9-20 20-20s20 9 20 20v316.5c0 11.1-8.9 20-20 20z" fill="#3c27ff" p-id="12587"></path><path d="M142.8 554.8m-49.7 0a49.7 49.7 0 1 0 99.4 0 49.7 49.7 0 1 0-99.4 0Z" fill="#3c27ff" p-id="12588"></path></svg>