<?xml version="1.0" standalone="no"?><!DOCTYPE svg PUBLIC "-//W3C//DTD SVG 1.1//EN" "http://www.w3.org/Graphics/SVG/1.1/DTD/svg11.dtd"><svg t="1626437488806" class="icon" viewBox="0 0 1024 1024" version="1.1" xmlns="http://www.w3.org/2000/svg" p-id="21468" width="16" height="16" xmlns:xlink="http://www.w3.org/1999/xlink"><defs><style type="text/css"></style></defs><path d="M746.666667 554.666667a42.666667 42.666667 0 0 1-30.08-12.586667l-469.333334-469.333333a42.666667 42.666667 0 0 1 0-60.16 42.666667 42.666667 0 0 1 60.16 0l469.333334 469.333333A42.666667 42.666667 0 0 1 746.666667 554.666667z" fill="#333333" p-id="21469"></path><path d="M277.333333 1024a42.666667 42.666667 0 0 1-30.08-72.746667l469.333334-469.333333a42.666667 42.666667 0 0 1 60.16 60.16l-469.333334 469.333333A42.666667 42.666667 0 0 1 277.333333 1024z" fill="#333333" p-id="21470"></path></svg>