<?xml version="1.0" standalone="no"?><!DOCTYPE svg PUBLIC "-//W3C//DTD SVG 1.1//EN" "http://www.w3.org/Graphics/SVG/1.1/DTD/svg11.dtd"><svg t="1628403463895" class="icon" viewBox="0 0 1024 1024" version="1.1" xmlns="http://www.w3.org/2000/svg" p-id="1363" xmlns:xlink="http://www.w3.org/1999/xlink" width="16" height="16"><defs><style type="text/css"></style></defs><path d="M512.128379 1024a511.992506 511.992506 0 1 1 511.871639-511.871639 512.475974 512.475974 0 0 1-511.871639 511.871639z m0-944.817144a432.945505 432.945505 0 1 0 432.824637 432.945505A433.428972 433.428972 0 0 0 512.128379 79.182856z" fill="#6373ff" p-id="1364"></path><path d="M738.391356 715.789214a39.1609 39.1609 0 0 1-53.54407 14.38317l-186.376875-105.154269a39.1609 39.1609 0 0 1-23.085593-26.349 40.973905 40.973905 0 0 1-0.966935-5.318147 27.678537 27.678537 0 0 1 0-3.021674V192.435212a39.281767 39.281767 0 1 1 78.563533 0v372.874618l171.631105 96.69358a39.281767 39.281767 0 0 1 13.778835 53.785804z" fill="#6373ff" p-id="1365"></path></svg>