<?xml version="1.0" standalone="no"?><!DOCTYPE svg PUBLIC "-//W3C//DTD SVG 1.1//EN" "http://www.w3.org/Graphics/SVG/1.1/DTD/svg11.dtd"><svg t="1628403736250" class="icon" viewBox="0 0 1024 1024" version="1.1" xmlns="http://www.w3.org/2000/svg" p-id="4442" xmlns:xlink="http://www.w3.org/1999/xlink" width="16" height="16"><defs><style type="text/css"></style></defs><path d="M941.3632 495.7184L782.6432 333.824a20.48 20.48 0 1 0-29.2864 28.672l124.6208 127.0784H384a20.48 20.48 0 0 0 0 40.96h492.6464l-133.12 130.6624a20.48 20.48 0 0 0 28.672 29.2864L941.056 524.6976a20.48 20.48 0 0 0 0.3072-28.9792z" p-id="4443" fill="#6373ff"></path><path d="M665.6 727.04a20.48 20.48 0 0 0-20.48 20.48v81.92a81.92 81.92 0 0 1-81.92 81.92H194.56a81.92 81.92 0 0 1-81.92-81.92V194.56a81.92 81.92 0 0 1 81.92-81.92h368.64a81.92 81.92 0 0 1 81.92 81.92v71.68a20.48 20.48 0 0 0 40.96 0v-71.68A122.88 122.88 0 0 0 563.2 71.68H194.56A122.88 122.88 0 0 0 71.68 194.56v634.88a122.88 122.88 0 0 0 122.88 122.88h368.64a122.88 122.88 0 0 0 122.88-122.88v-81.92a20.48 20.48 0 0 0-20.48-20.48z" p-id="4444" fill="#6373ff"></path></svg>